# xmcd CD database file
#
# Track frame offsets:
#	150
#	18030
#	50202
#	80292
#	95887
#	126767
#	144985
#
# Disc length: 2238 seconds
#
# Revision: 0
# Processed by: cddbd v1.4PL0 Copyright (c) Steve Scherf et al.
# Submitted via: CDex 1.50
#
DISCID=5708bc07
DTITLE=Eric Le Lann - I mist you
DYEAR=1985
DGENRE=Jazz
TTITLE0=Modesty and Gremlin
TTITLE1=I mean you
TTITLE2=God bless the child
TTITLE3=Hymne à l'amour
TTITLE4=Dolphin dance
TTITLE5=Ladies blues
TTITLE6=Witch hunt
EXTD=YEAR: 1985
EXTT0=
EXTT1=
EXTT2=
EXTT3=
EXTT4=
EXTT5=
EXTT6=
PLAYORDER=
